<svg xmlns="http://www.w3.org/2000/svg" width="1280" height="664" style="cursor: move;"><g transform="translate(-22.51466955607998,-18.594781274283378) scale(1.2640030984528257)"><path class="link" marker-end="url(#arrow)" d="M480,302, 660,322" style="stroke-width: 0.6px; stroke-opacity: 1; stroke: rgb(80, 80, 80);"></path><path class="link" marker-end="url(#arrow)" d="M480,342, 660,322" style="stroke-width: 0.6px; stroke-opacity: 1; stroke: rgb(80, 80, 80);"></path><path class="link" marker-end="url(#arrow)" d="M480,302, 660,362" style="stroke-width: 0.6px; stroke-opacity: 1; stroke: rgb(80, 80, 80);"></path><path class="link" marker-end="url(#arrow)" d="M480,342, 660,362" style="stroke-width: 0.6px; stroke-opacity: 1; stroke: rgb(80, 80, 80);"></path><path class="link" marker-end="url(#arrow)" d="M660,282, 840,322" style="stroke-width: 0.6px; stroke-opacity: 1; stroke: rgb(80, 80, 80);"></path><path class="link" marker-end="url(#arrow)" d="M660,322, 840,322" style="stroke-width: 0.6px; stroke-opacity: 1; stroke: rgb(80, 80, 80);"></path><path class="link" marker-end="url(#arrow)" d="M660,362, 840,322" style="stroke-width: 0.6px; stroke-opacity: 1; stroke: rgb(80, 80, 80);"></path><path class="link" marker-end="url(#arrow)" d="M480,302, 660,282" style="stroke-width: 0.6px; stroke-opacity: 1; stroke: rgb(80, 80, 80);"></path><path class="link" marker-end="url(#arrow)" d="M480,342, 660,282" style="stroke-width: 0.6px; stroke-opacity: 1; stroke: rgb(80, 80, 80);"></path><circle r="13.5" class="node" id="0_0" cx="480" cy="302" style="fill: rgb(255, 255, 255); stroke: rgb(51, 51, 51);"></circle><circle r="13.5" class="node" id="0_1" cx="480" cy="342" style="fill: rgb(255, 255, 255); stroke: rgb(51, 51, 51);"></circle><text class="text" dy=".35em" x="445" y="402" style="font-size: 12px;"></text><circle r="13.5" class="node" id="1_0" cx="660" cy="282" style="fill: rgb(255, 255, 255); stroke: rgb(51, 51, 51);"></circle><text class="text" dy=".35em" x="625" y="402" style="font-size: 12px;"></text><circle r="13.5" class="node" id="1_1" cx="660" cy="322" style="fill: rgb(255, 255, 255); stroke: rgb(51, 51, 51);"></circle><circle r="13.5" class="node" id="1_2" cx="660" cy="362" style="fill: rgb(255, 255, 255); stroke: rgb(51, 51, 51);"></circle><circle r="13.5" class="node" id="2_0" cx="840" cy="322" style="fill: rgb(255, 255, 255); stroke: rgb(51, 51, 51);"></circle><text class="text" dy=".35em" x="805" y="402" style="font-size: 12px;"></text></g><defs><marker id="arrow" viewBox="0 -5 10 10" markerWidth="7" markerHeight="7" orient="auto" refX="49.8"><path d="M0,-5L10,0L0,5" style="stroke: rgb(80, 80, 80); fill: rgb(80, 80, 80);"></path></marker></defs></svg>